# xmcd CD database file
# Copyright (C) 1993-1998 Ti Kan
#
# Track frame offsets:
#	150
#	27937
#	51937
#	73587
#	95862
#	114602
#	143577
#	176142
#	198817
#	224120
#	241352
#	261857
#	292112
#	306452
#	325687
#
# Disc length: 4658 seconds
#
# Revision: 1
# Processed by: cddbd v1.4b41PL1 Copyright (c) Steve Scherf et al.
# Submitted via: CDValet v3.31 - Copyright (c) 1997 Greg Leichner
#
DISCID=f112300f
DTITLE=Dells - Passionate Breezes (The Best Of 1975-1991)
DYEAR=1900
DGENRE=
TTITLE0=A Heart Is A House For Love
TTITLE1=I Touched A Dream
TTITLE2=Whatever Turns You On
TTITLE3=Betcha Never Been Loved (Like This Before)
TTITLE4=Slow Motion
TTITLE5=Stay In My Corner
TTITLE6=All About The Paper
TTITLE7=God Bless Those (Who Help Themselves)
TTITLE8=Passionate Breezes
TTITLE9=You Don't Care
TTITLE10=Wasted Tears
TTITLE11=Could It Be
TTITLE12=Private Property
TTITLE13=We got To Get Our Thing Together
TTITLE14=All Your Goodies Are gone
EXTD=
EXTT0=
EXTT1=
EXTT2=
EXTT3=
EXTT4=
EXTT5=
EXTT6=
EXTT7=
EXTT8=
EXTT9=
EXTT10=
EXTT11=
EXTT12=
EXTT13=
EXTT14=
PLAYORDER=
